<?xml version="1.0" encoding="UTF-8" standalone="no"?>
<!-- Created with Inkscape (http://www.inkscape.org/) -->

<svg
   width="8.1547165mm"
   height="4.6648216mm"
   viewBox="0 0 8.1547165 4.6648216"
   version="1.1"
   id="svg5"
   xmlns:inkscape="http://www.inkscape.org/namespaces/inkscape"
   xmlns:sodipodi="http://sodipodi.sourceforge.net/DTD/sodipodi-0.dtd"
   xmlns:xlink="http://www.w3.org/1999/xlink"
   xmlns="http://www.w3.org/2000/svg"
   xmlns:svg="http://www.w3.org/2000/svg">
  <sodipodi:namedview
     id="namedview7"
     pagecolor="#505050"
     bordercolor="#eeeeee"
     borderopacity="1"
     inkscape:showpageshadow="0"
     inkscape:pageopacity="0"
     inkscape:pagecheckerboard="0"
     inkscape:deskcolor="#505050"
     inkscape:document-units="mm"
     showgrid="false"
     inkscape:zoom="6.1575757"
     inkscape:cx="269.91142"
     inkscape:cy="106.12943"
     inkscape:window-width="1920"
     inkscape:window-height="1051"
     inkscape:window-x="-9"
     inkscape:window-y="-9"
     inkscape:window-maximized="1"
     inkscape:current-layer="layer1" />
  <defs
     id="defs2">
    <linearGradient
       inkscape:collect="always"
       id="linearGradient3265">
      <stop
         style="stop-color:#ff8989;stop-opacity:1;"
         offset="0"
         id="stop3261" />
      <stop
         style="stop-color:#354aff;stop-opacity:0;"
         offset="1"
         id="stop3263" />
    </linearGradient>
    <rect
       x="206.5748"
       y="91.59449"
       width="359.8819"
       height="211.77165"
       id="rect290" />
    <linearGradient
       inkscape:collect="always"
       xlink:href="#linearGradient3265"
       id="linearGradient3267"
       x1="206.57422"
       y1="105.77023"
       x2="239.83203"
       y2="105.77023"
       gradientUnits="userSpaceOnUse"
       gradientTransform="matrix(0.26458333,0,0,0.26458333,3.0985217,-1.2620765)" />
    <linearGradient
       inkscape:collect="always"
       xlink:href="#linearGradient3265"
       id="linearGradient3267-4"
       x1="206.57422"
       y1="105.77023"
       x2="239.83203"
       y2="105.77023"
       gradientUnits="userSpaceOnUse" />
    <rect
       x="206.5748"
       y="91.59449"
       width="359.8819"
       height="211.77165"
       id="rect290-9" />
  </defs>
  <g
     inkscape:label="레이어 1"
     inkscape:groupmode="layer"
     id="layer1"
     transform="translate(-58.399537,-25.220681)">
    <path
       id="text288"
       style="white-space:pre;shape-inside:url(#rect290);fill:url(#linearGradient3267);fill-opacity:1;stroke:none;stroke-width:4;stroke-linecap:round;stroke-miterlimit:10"
       d="m 59.18106,27.529069 v 2.308386 h 0.306959 v -1.130162 h 1.151866 v 1.130162 h 0.306959 v -2.308386 h -0.306959 v 0.905373 h -1.151866 v -0.905373 z m 6.643004,0.528651 c -0.252179,0 -0.455784,0.0832 -0.610814,0.249597 -0.153995,0.166399 -0.230994,0.391192 -0.230994,0.674378 0,0.286287 0.08061,0.507463 0.241847,0.663525 0.161229,0.15503 0.385506,0.232545 0.672825,0.232545 0.112654,0 0.220144,-0.01395 0.322461,-0.04186 0.10232,-0.0279 0.202573,-0.06253 0.300757,-0.103867 v -0.317813 h -0.0155 c -0.05064,0.04548 -0.135908,0.09199 -0.255799,0.139528 -0.118856,0.04651 -0.237194,0.06976 -0.355015,0.06976 -0.08888,0 -0.170535,-0.0124 -0.244949,-0.03721 -0.07338,-0.02481 -0.13694,-0.06201 -0.190685,-0.11162 -0.05581,-0.05064 -0.09973,-0.115239 -0.131776,-0.193786 -0.03204,-0.07958 -0.04806,-0.172601 -0.04806,-0.279054 h 1.275893 v -0.15813 c 0,-0.251146 -0.06356,-0.444934 -0.190686,-0.581359 -0.126092,-0.136427 -0.305927,-0.204639 -0.539504,-0.204639 z m -3.688146,0.0062 c -0.104386,0 -0.210322,0.0093 -0.317809,0.0279 -0.107487,0.0186 -0.189654,0.03566 -0.246497,0.05116 v 0.296106 h 0.0155 c 0.100254,-0.03824 0.197406,-0.06718 0.291455,-0.08682 0.09405,-0.02067 0.179318,-0.03101 0.255799,-0.03101 0.06305,0 0.123507,0.0041 0.181385,0.0124 0.05788,0.0083 0.107487,0.02429 0.148828,0.04806 0.04341,0.02481 0.07648,0.05891 0.09922,0.10232 0.02377,0.04341 0.03566,0.09818 0.03566,0.16433 v 0.04496 c -0.169497,0.0083 -0.328144,0.02067 -0.475938,0.03721 -0.147796,0.01654 -0.274402,0.04806 -0.379822,0.09457 -0.104386,0.04651 -0.185002,0.110588 -0.241845,0.192235 -0.05581,0.08062 -0.08372,0.186553 -0.08372,0.317813 0,0.160194 0.05426,0.29197 0.162779,0.395324 0.108522,0.103352 0.240814,0.155027 0.396875,0.155027 0.08475,0 0.158647,-0.0083 0.221692,-0.0248 0.06305,-0.0155 0.118856,-0.03514 0.167434,-0.05891 0.04134,-0.0186 0.08371,-0.04341 0.127124,-0.07441 0.04444,-0.03204 0.07958,-0.05685 0.105418,-0.07441 v 0.184483 h 0.289907 v -1.17512 c 0,-0.111622 -0.01705,-0.205155 -0.05116,-0.280604 -0.03411,-0.07545 -0.08372,-0.136943 -0.148828,-0.184486 -0.06615,-0.04857 -0.144696,-0.08268 -0.235646,-0.102317 -0.08992,-0.02067 -0.195853,-0.03101 -0.31781,-0.03101 z m 1.90531,0 c -0.110588,0 -0.210839,0.01447 -0.300757,0.04341 -0.08888,0.02791 -0.162264,0.06615 -0.220142,0.114721 -0.05994,0.04961 -0.104902,0.105939 -0.134874,0.168984 -0.02894,0.06304 -0.04341,0.130223 -0.04341,0.201538 0,0.113687 0.03152,0.209804 0.09457,0.288354 0.06408,0.07752 0.172083,0.136424 0.324012,0.176734 0.05478,0.01447 0.115236,0.02791 0.181382,0.04031 0.06718,0.0124 0.121441,0.02325 0.162782,0.03256 0.11162,0.02481 0.187069,0.05478 0.226343,0.08992 0.03927,0.03514 0.05891,0.08682 0.05891,0.15503 0,0.08888 -0.03617,0.153996 -0.108519,0.195337 -0.07235,0.04134 -0.172601,0.06201 -0.300757,0.06201 -0.103354,0 -0.211357,-0.02016 -0.324011,-0.06046 -0.112655,-0.04134 -0.214974,-0.09663 -0.306959,-0.16588 h -0.0155 V 29.7336 c 0.07234,0.03617 0.161747,0.06976 0.2682,0.100767 0.107487,0.02997 0.225308,0.04496 0.353467,0.04496 0.226341,0 0.404625,-0.05064 0.53485,-0.151929 0.131257,-0.101285 0.196887,-0.230994 0.196887,-0.389125 0,-0.12609 -0.03669,-0.227375 -0.110069,-0.303856 -0.07338,-0.07545 -0.177768,-0.128674 -0.313161,-0.159681 -0.04444,-0.01034 -0.100251,-0.0217 -0.167431,-0.03411 -0.06615,-0.0124 -0.12609,-0.0248 -0.179835,-0.03721 -0.09715,-0.02274 -0.167431,-0.05219 -0.210838,-0.08837 -0.04444,-0.03617 -0.06666,-0.08992 -0.06666,-0.161231 0,-0.08062 0.03669,-0.141076 0.110071,-0.181386 0.07338,-0.04134 0.163299,-0.06201 0.269751,-0.06201 0.10232,0 0.206706,0.01912 0.313158,0.05736 0.106455,0.03721 0.19689,0.0832 0.271304,0.137975 h 0.0155 v -0.311608 c -0.07028,-0.03617 -0.158647,-0.06666 -0.265099,-0.09147 -0.105421,-0.02584 -0.209807,-0.03876 -0.313161,-0.03876 z m 1.767335,0.234092 c 0.155029,0 0.270266,0.04186 0.345715,0.125574 0.07648,0.08372 0.115239,0.202057 0.116271,0.355018 h -0.992188 c 0.0124,-0.136424 0.0646,-0.250632 0.156581,-0.342614 0.09302,-0.09198 0.217559,-0.137978 0.373621,-0.137978 z m -3.209108,0.630971 v 0.482142 c -0.07235,0.05581 -0.150894,0.103868 -0.235643,0.144177 -0.08475,0.03927 -0.178284,0.05891 -0.280604,0.05891 -0.122989,0 -0.214458,-0.0248 -0.274402,-0.07441 -0.05994,-0.05064 -0.08992,-0.125574 -0.08992,-0.224792 0,-0.08785 0.02584,-0.156578 0.07751,-0.206188 0.05168,-0.05064 0.119372,-0.08785 0.203089,-0.111622 0.07028,-0.01964 0.165364,-0.03462 0.285252,-0.04496 0.120923,-0.01033 0.225828,-0.01809 0.314709,-0.02325 z"
       inkscape:export-filename="text288.png"
       inkscape:export-xdpi="96"
       inkscape:export-ydpi="96" />
    <path
       id="text288-5"
       style="white-space:pre;shape-inside:url(#rect290-9);fill:url(#linearGradient3267-4);fill-opacity:1;stroke:none;stroke-width:15.1181;stroke-linecap:round;stroke-miterlimit:10"
       d="m 207.74627,93.81628 v 8.72461 h 1.08399 v -7.804688 l 4.13672,7.804688 h 1.43554 v -8.72461 h -1.08398 v 7.125 l -3.77344,-7.125 z m 23.93555,1.998047 c -0.95312,0 -1.72266,0.314454 -2.30859,0.943359 -0.58203,0.628906 -0.87305,1.478517 -0.87305,2.548829 0,1.082025 0.30469,1.917965 0.91406,2.507815 0.60938,0.58593 1.45704,0.8789 2.54297,0.8789 0.42578,0 0.83203,-0.0527 1.21875,-0.1582 0.38672,-0.10547 0.76563,-0.23633 1.13672,-0.39258 v -1.20117 h -0.0586 c -0.19141,0.17188 -0.51368,0.34766 -0.9668,0.52734 -0.44922,0.17579 -0.89648,0.26368 -1.3418,0.26368 -0.33593,0 -0.64453,-0.0469 -0.92578,-0.14063 -0.27734,-0.0937 -0.51758,-0.23437 -0.7207,-0.42187 -0.21094,-0.19141 -0.37695,-0.43555 -0.49805,-0.73243 -0.12109,-0.30078 -0.18164,-0.65234 -0.18164,-1.054684 h 4.82227 V 98.78503 c 0,-0.949218 -0.24024,-1.681641 -0.72071,-2.197265 -0.47656,-0.515625 -1.15625,-0.773438 -2.03906,-0.773438 z m -12.80859,0.02344 c -0.39453,0 -0.79492,0.03516 -1.20117,0.105468 -0.40625,0.07031 -0.7168,0.134766 -0.93165,0.19336 v 1.11914 h 0.0586 c 0.3789,-0.144531 0.74609,-0.253906 1.10156,-0.328125 0.35547,-0.07813 0.67774,-0.117187 0.9668,-0.117187 0.23828,0 0.4668,0.01563 0.68555,0.04687 0.21874,0.03125 0.40625,0.0918 0.5625,0.18164 0.16406,0.09375 0.28906,0.222657 0.375,0.386719 0.0898,0.164063 0.13476,0.371094 0.13476,0.621094 v 0.169922 c -0.64062,0.03125 -1.24023,0.07813 -1.79883,0.140625 -0.55859,0.0625 -1.03711,0.181641 -1.43554,0.357422 -0.39454,0.175781 -0.69922,0.417969 -0.91407,0.726562 -0.21093,0.304687 -0.3164,0.705083 -0.3164,1.201173 0,0.60547 0.20508,1.10352 0.61523,1.49414 0.41016,0.39063 0.91016,0.58594 1.5,0.58594 0.32031,0 0.59961,-0.0312 0.83789,-0.0937 0.23828,-0.0586 0.44922,-0.13281 0.63281,-0.22266 0.15625,-0.0703 0.31641,-0.16406 0.48047,-0.28125 0.16797,-0.12109 0.30078,-0.21484 0.39844,-0.28125 v 0.69727 h 1.0957 v -4.44141 c 0,-0.421874 -0.0644,-0.775391 -0.19336,-1.060547 -0.1289,-0.285156 -0.3164,-0.517578 -0.5625,-0.697265 -0.25,-0.183594 -0.54687,-0.3125 -0.89062,-0.386719 -0.33984,-0.07813 -0.74024,-0.117187 -1.20117,-0.117187 z m 4.96875,0.158203 v 6.54492 h 1.10156 v -4.646483 c 0.29297,-0.238281 0.59766,-0.431641 0.91406,-0.580078 0.31641,-0.152344 0.64453,-0.228516 0.98438,-0.228516 0.21093,0 0.39258,0.0098 0.54492,0.0293 0.15625,0.01563 0.31641,0.04297 0.48047,0.08203 h 0.0586 v -1.13086 c -0.17187,-0.02734 -0.30078,-0.04492 -0.38672,-0.05273 -0.0859,-0.01172 -0.22461,-0.01758 -0.41601,-0.01758 -0.34766,0 -0.68946,0.07422 -1.02539,0.222656 -0.33203,0.144531 -0.7168,0.392578 -1.1543,0.744141 v -0.966797 z m 7.78125,0.726562 c 0.58593,0 1.02148,0.158204 1.30664,0.47461 0.28906,0.316405 0.43555,0.763672 0.43945,1.341796 h -3.75 c 0.0469,-0.515624 0.24414,-0.947266 0.5918,-1.294921 0.35156,-0.347656 0.82226,-0.521485 1.41211,-0.521485 z m -10.99805,2.384766 v 1.822262 c -0.27344,0.21094 -0.57031,0.39258 -0.89062,0.54492 -0.32032,0.14844 -0.67383,0.22266 -1.06055,0.22266 -0.46484,0 -0.81055,-0.0937 -1.03711,-0.28125 -0.22656,-0.19141 -0.33984,-0.47461 -0.33984,-0.84961 0,-0.33203 0.0977,-0.591795 0.29296,-0.779295 0.19532,-0.191406 0.45118,-0.332031 0.76758,-0.421875 0.26563,-0.07422 0.625,-0.130859 1.07813,-0.169922 0.45703,-0.03906 0.85351,-0.06836 1.18945,-0.08789 z"
       transform="matrix(0.26458333,0,0,0.26458333,3.4333351,0.39845897)" />
  </g>
</svg>
